<svg xmlns="http://www.w3.org/2000/svg" viewBox="0 0 548.25 194.35"><defs><style>.cls-1{fill:#fcfcfc;}.cls-2{fill:#fff;}</style></defs><title>Recurso 2</title><g id="Capa_2" data-name="Capa 2"><g id="Capa_1-2" data-name="Capa 1"><path class="cls-1" d="M171.82,160.21a20.68,20.68,0,0,0,.09,2.2,2.22,2.22,0,0,0,.47,1.23,2,2,0,0,0,1.26.55,19.19,19.19,0,0,0,2.46.12h7.56q4.68,0,7.61-.21a11.7,11.7,0,0,0,5-1.34,10.22,10.22,0,0,0,3.61-3.64,53.32,53.32,0,0,0,3.48-7.06l2.93.65a18.83,18.83,0,0,1-.26,2.11c-.18,1.13-.4,2.45-.67,4s-.59,3-.94,4.6-.7,2.93-1.06,4.1a2.83,2.83,0,0,1-2.87,2l-5.15,0-6.65-.06-7.86-.06q-4.19,0-8.76,0h-9.72a1.2,1.2,0,0,1-1.12-.5,1.93,1.93,0,0,1-.29-1V111.52c0-2-.45-3.31-1.35-4a5.59,5.59,0,0,0-3.34-1,18.23,18.23,0,0,0-2.52.18l-.35-3.22c.82-.16,2-.35,3.58-.59s3.19-.47,4.89-.7,3.34-.43,4.92-.59,2.82-.23,3.72-.23H191.8l4.16,0,4.81-.09a.93.93,0,0,1,1,.88c0,.55.09,1.27.15,2.17s.1,1.87.14,2.93.09,2.13.15,3.22.11,2.11.15,3,.06,1.74.08,2.4,0,1.07,0,1.23l-2.93.29a37.13,37.13,0,0,0-2-6.44,7.5,7.5,0,0,0-2.61-3.34,8.34,8.34,0,0,0-4-1.26q-2.43-.21-6.3-.21H174.34a13.55,13.55,0,0,0-1.49.06,1.27,1.27,0,0,0-.74.29,1.08,1.08,0,0,0-.26.68q0,.44,0,1.2V132.2l8.82-.44,7-.35,4.78-.24,2.22-.08c1.1,0,1.64.58,1.64,1.75,0,.75,0,1.51-.11,2.29s-.18,1.62-.3,2.52l-24-.82Z"/><path class="cls-1" d="M229,160.21a20.68,20.68,0,0,0,.09,2.2,2.22,2.22,0,0,0,.47,1.23,2,2,0,0,0,1.25.55,19.47,19.47,0,0,0,2.47.12H239q4.68,0,7.64-.23a11.36,11.36,0,0,0,5-1.47,11.2,11.2,0,0,0,3.64-3.75,52.35,52.35,0,0,0,3.51-7.09l2.93.64a20.51,20.51,0,0,1-.29,2.17c-.2,1.17-.44,2.52-.73,4s-.62,3.08-1,4.68-.7,3-1.06,4.16a2.83,2.83,0,0,1-2.87,2l-10.92-.12q-6.54-.06-15.74-.06h-9.72a1.2,1.2,0,0,1-1.12-.5,1.93,1.93,0,0,1-.29-1V110.58a9.36,9.36,0,0,0-.32-2.67,3.78,3.78,0,0,0-.94-1.61,3.46,3.46,0,0,0-1.46-.82,7.52,7.52,0,0,0-1.91-.23,20.32,20.32,0,0,0-2.58.17l-.35-3.22q3.16-.58,6-1c1.89-.27,3.57-.48,5-.64s2.68-.27,3.66-.35,1.6-.12,1.87-.12A1.66,1.66,0,0,1,229,102Z"/><path class="cls-1" d="M282.85,160.21a20.68,20.68,0,0,0,.09,2.2,2.29,2.29,0,0,0,.47,1.23,2,2,0,0,0,1.26.55,19.4,19.4,0,0,0,2.46.12h5.8q4.69,0,7.65-.23a11.44,11.44,0,0,0,5-1.47,11.09,11.09,0,0,0,3.63-3.75,51.06,51.06,0,0,0,3.52-7.09l2.93.64a19,19,0,0,1-.3,2.17c-.19,1.17-.44,2.52-.73,4s-.61,3.08-1,4.68-.71,3-1.06,4.16a2.84,2.84,0,0,1-2.87,2l-10.93-.12q-6.52-.06-15.73-.06h-9.73a1.18,1.18,0,0,1-1.11-.5,1.83,1.83,0,0,1-.29-1V110.58a9,9,0,0,0-.33-2.67,3.67,3.67,0,0,0-.93-1.61,3.44,3.44,0,0,0-1.47-.82,7.38,7.38,0,0,0-1.9-.23,20.32,20.32,0,0,0-2.58.17l-.35-3.22q3.17-.58,6-1c1.9-.27,3.58-.48,5-.64s2.69-.27,3.66-.35,1.61-.12,1.88-.12a1.66,1.66,0,0,1,1.87,1.88Z"/><path class="cls-1" d="M333.83,144.74l-9,24.32a1.22,1.22,0,0,1-1.06.76c-.7.07-1.5.13-2.4.17s-1.91.06-3.05.06c-.62,0-.93-.19-.93-.58a.67.67,0,0,1,.06-.3l26.83-64.33-1.23-3.4a3.13,3.13,0,0,1-.12-.65c0-.58.37-.93,1.12-1.05s1.35-.22,2.19-.32l2.44-.27c.78-.07,1.5-.13,2.16-.17s1.16-.06,1.47-.06a1.79,1.79,0,0,1,1.7,1.35l26.13,67.26a2.3,2.3,0,0,1,.18.65c0,.66-.39,1-1.18,1.17s-1.49.22-2.37.32-1.74.18-2.58.24-1.61.09-2.31.11l-1.52,0a1.32,1.32,0,0,1-1.35-.88l-9.55-24.84Zm1.88-5h22L346.55,110.7Z"/><path class="cls-1" d="M406.66,134.13a37,37,0,0,0,8-1.29,15.74,15.74,0,0,0,5.77-2.9,12,12,0,0,0,3.52-4.83,18.7,18.7,0,0,0,1.2-7.09,13.29,13.29,0,0,0-1.29-6,11.61,11.61,0,0,0-3.57-4.25,15.73,15.73,0,0,0-5.39-2.49,26,26,0,0,0-6.68-.82,11.93,11.93,0,0,0-3.52.38c-.78.25-1.17,1-1.17,2.14v60.76a1.51,1.51,0,0,1-1.41,1.64c-.66.12-1.39.22-2.19.32s-1.59.18-2.35.24-1.46.09-2.11.11l-1.43,0a1.27,1.27,0,0,1-1.41-1.46V109.82c0-2-.43-3.25-1.29-3.9a5.45,5.45,0,0,0-3.34-1,20.51,20.51,0,0,0-2.58.18l-.35-3.22q5.86-1,12.16-1.67a120.69,120.69,0,0,1,12.86-.68q2.82,0,5.92.24a43.79,43.79,0,0,1,6.09.88,31.69,31.69,0,0,1,5.69,1.78,16.59,16.59,0,0,1,4.71,3,13.71,13.71,0,0,1,3.23,4.46,14.62,14.62,0,0,1,1.2,6.18,18.28,18.28,0,0,1-1.14,6.71,16.69,16.69,0,0,1-3.17,5.12,19.74,19.74,0,0,1-4.72,3.81,34.24,34.24,0,0,1-5.8,2.7v.35a21.65,21.65,0,0,1,3.17.91,14.1,14.1,0,0,1,3.31,1.75,14.83,14.83,0,0,1,3,2.9,13.81,13.81,0,0,1,2.19,4.34l4.34,13.42a44.7,44.7,0,0,0,1.61,4.39,8.7,8.7,0,0,0,1.55,2.49,4,4,0,0,0,1.88,1.12,11.4,11.4,0,0,0,2.64.26l.17,3c-.74.15-1.55.3-2.43.44s-1.75.24-2.61.32l-2.31.2c-.69.06-1.2.09-1.56.09a11.29,11.29,0,0,1-3.33-.44A6.64,6.64,0,0,1,431,168.5a10,10,0,0,1-2.08-2.87,25,25,0,0,1-1.67-4.48l-4.16-14.3A17.36,17.36,0,0,0,421,142a8.38,8.38,0,0,0-3.08-2.79,13.18,13.18,0,0,0-4.45-1.29q-2.61-.32-6.3-.44Z"/><path class="cls-1" d="M461,106.13c-2.54,0-4.64.06-6.3.2a7.4,7.4,0,0,0-6.85,5,38.12,38.12,0,0,0-2.08,6.92l-2.93-.3q0-.23,0-1.29c0-.7,0-1.54.11-2.52s.12-2,.18-3.22.12-2.31.2-3.43.16-2.14.24-3.1.15-1.71.23-2.26.39-.88,1.06-.88q5.33.12,10.19.18t9,.06h19.51q4.09,0,9-.06t10.26-.18a.87.87,0,0,1,.93.88c.08.55.15,1.3.21,2.26s.12,2,.17,3.1.11,2.26.15,3.43.07,2.25.09,3.22,0,1.82.06,2.52,0,1.14,0,1.29l-2.93.3a44.59,44.59,0,0,0-2-6.92,8.25,8.25,0,0,0-2.61-3.6,7.91,7.91,0,0,0-4-1.35c-1.62-.14-3.72-.2-6.29-.2h-7.5v61.58a1.51,1.51,0,0,1-1.41,1.64c-.67.12-1.4.22-2.2.32s-1.58.18-2.34.24-1.47.09-2.11.11l-1.44,0c-.93,0-1.4-.49-1.4-1.46V106.13Z"/><path class="cls-1" d="M98.89,89.66c-9.6-4.7-22.41-5.16-36.39-1L47.4,94.24l-.15.05c-17.1,7-33.08,9.15-36.39,5-4.8-6,8.66-30.64,20.08-44.3A193.3,193.3,0,0,1,45.78,39.64c2.28-2.11,4.13-3.7,6.18-5.33a114.11,114.11,0,0,1,9.71-6.7C82.42,15,99.16,12,99.32,12c22.57-3.85,29.32-1.14,31,1.82,2.49,4.34.08,14-4.23,23.13-1.69,3.56-5.5,10-7.19,11.56l1.31,4.19a53.06,53.06,0,0,0,5-4.25,60.73,60.73,0,0,0,4.41-4.77c2.64-3.24,15.94-23.37,9.38-34.83-7.18-12.55-30.28-8.6-41.38-6.7C96.88,2.24,79,5.41,56.49,19.06a118.06,118.06,0,0,0-10.71,7.4C43.49,28.26,41.46,30,39,32.3A207.85,207.85,0,0,0,23.26,48.59C22.93,49-10,89.23,3,105.53c9.51,11.92,36.61,2.64,47.9-1.94l14.57-5.38A50.57,50.57,0,0,1,85,96L62.89,106.68c-6,2.95-11.94,6.22-17.72,9.72-1.66,1-6.05,3.65-10,6.41-8.91,6.19-16.6,11.53-22.86,21-7.61,11.48-8.58,21-8,26.93a24.68,24.68,0,0,0,3.51,11,25.39,25.39,0,0,0,10.07,8.58,39.41,39.41,0,0,0,17.92,4,63.23,63.23,0,0,0,14.62-1.92,70.09,70.09,0,0,0,13.31-4.69l.24-.11a77,77,0,0,0,11.59-6.72l8.57-6.22.27-.2c13.65-11.4,23.79-25.44,28.57-39.55,5.06-15,3.57-28.33-4.2-37.64l-.7-.8L126.54,88v79.39a2,2,0,0,0,2.2,2l5.53-.62a2.56,2.56,0,0,0,2.27-2.55V83.41l31-14.23a4.77,4.77,0,0,1,6.61,3.15l3.08,12,4,.81V52.35Zm4.56,42.08c-4.18,12.34-13.19,24.75-25.38,35l-8.26,6a67.47,67.47,0,0,1-10,5.83l-.25.11a59.08,59.08,0,0,1-11.43,4.05c-4.76,1.11-15.9,3.71-25.75-1.29a15.3,15.3,0,0,1-6.16-5.05,14.41,14.41,0,0,1-2-6.52c-.39-4.36.41-11.46,6.42-20.52,5.21-7.85,11.84-12.46,20.23-18.29,3.71-2.57,7.9-5.11,9.5-6.08,5.52-3.34,11.23-6.46,16.92-9.27l22.94-11.1,8-3.61a19.44,19.44,0,0,1,2.84,2.75C106.49,110.25,107.35,120.2,103.45,131.74Z"/><polygon class="cls-1" points="126.54 80.93 126.54 88 136.54 83.41 136.54 80.93 126.54 80.93"/><path class="cls-2" d="M529.29,99Q537.77,99,543,104t5.21,13.49q0,8.7-5.32,13.85t-14,5.11q-8.43,0-13.69-5.11t-5.16-13.69q0-8.38,5.43-13.48A19.58,19.58,0,0,1,529.29,99Zm-.27,2.63a14.83,14.83,0,0,0-11,4.25q-4.18,4.29-4.19,11.65,0,7.53,4.19,11.87a14.66,14.66,0,0,0,11.07,4.35,18.24,18.24,0,0,0,6.31-1,12.91,12.91,0,0,0,4.83-3.12,13.94,13.94,0,0,0,3.09-5.07,20.7,20.7,0,0,0,1.07-7q0-7.35-4.24-11.6A15.13,15.13,0,0,0,529,101.64ZM527.25,117a7.35,7.35,0,0,0,4-1,3.76,3.76,0,0,0,1.1-3.12,3,3,0,0,0-1.16-2.65,5,5,0,0,0-3-.84,4.09,4.09,0,0,0-1.32.16.73.73,0,0,0-.4.76v15.89a.69.69,0,0,1-.59.76c-.57.07-1.22.13-1.93.18s-1.22.08-1.51.08-.53-.19-.53-.59V111.85a2.07,2.07,0,0,0-.54-1.67,2.3,2.3,0,0,0-1.45-.43h-.54q-.44,0-.48.06l-.16-1.34c1.64-.29,3.34-.52,5.07-.7a50.79,50.79,0,0,1,5.24-.27c.86,0,1.78,0,2.76.13a9.56,9.56,0,0,1,2.69.62,5.1,5.1,0,0,1,2,1.4,3.5,3.5,0,0,1,.81,2.41,4.48,4.48,0,0,1-1.29,3.39,8.39,8.39,0,0,1-3.54,1.88v.16a6.64,6.64,0,0,1,1.53.64,3.75,3.75,0,0,1,1,.94,5.41,5.41,0,0,1,.73,1.35c.2.52.4,1.13.62,1.85a17.58,17.58,0,0,0,.67,1.85,3.38,3.38,0,0,0,.64,1,1.62,1.62,0,0,0,.81.46,4.91,4.91,0,0,0,1.1.11l0,1.34c-.61.11-1.31.2-2.12.27s-1.35.11-1.64.11a3.36,3.36,0,0,1-2.41-.81,6.3,6.3,0,0,1-1.4-3.12c-.21-.85-.42-1.61-.62-2.28a5.55,5.55,0,0,0-.75-1.64,2.74,2.74,0,0,0-1.23-1,4.46,4.46,0,0,0-2.07-.22Z"/></g></g></svg>